STARTFONT 2.1
FONT -FontForge-Monofett-Book-R-Normal--14-140-72-72-P-76-ISO10646-1
SIZE 14 72 72
FONTBOUNDINGBOX 9 16 0 -2
COMMENT "Generated by fontforge, http://fontforge.sourceforge.net"
COMMENT "Copyright (c) 2011 by vernon adams. All rights reserved."
STARTPROPERTIES 40
FOUNDRY "FontForge"
FAMILY_NAME "Monofett"
WEIGHT_NAME "Book"
SLANT "R"
SETWIDTH_NAME "Normal"
ADD_STYLE_NAME ""
PIXEL_SIZE 14
POINT_SIZE 140
RESOLUTION_X 72
RESOLUTION_Y 72
SPACING "P"
AVERAGE_WIDTH 76
CHARSET_REGISTRY "ISO10646"
CHARSET_ENCODING "1"
FONTNAME_REGISTRY ""
CHARSET_COLLECTIONS "ISO8859-2 ISO8859-9 ISO8859-4 ISO10646-1"
FONT_NAME "Monofett"
FACE_NAME "Monofett"
COPYRIGHT "Copyright (c) 2011 by vernon adams. All rights reserved."
FONT_VERSION "1.000"
FONT_ASCENT 11
FONT_DESCENT 3
UNDERLINE_POSITION -2
UNDERLINE_THICKNESS 1
X_HEIGHT 8
CAP_HEIGHT 8
RAW_ASCENT 799
RAW_DESCENT 200
NORM_SPACE 2
RELATIVE_WEIGHT 40
RELATIVE_SETWIDTH 50
SUPERSCRIPT_X 0
SUPERSCRIPT_Y 6
SUPERSCRIPT_SIZE 9
SUBSCRIPT_X 0
SUBSCRIPT_Y 1
SUBSCRIPT_SIZE 9
FIGURE_WIDTH 8
AVG_LOWERCASE_WIDTH 80
AVG_UPPERCASE_WIDTH 80
ENDPROPERTIES
CHARS 409
STARTCHAR uni000D
ENCODING 13
SWIDTH 144 0
DWIDTH 2 0
BBX 1 1 0 0
BITMAP
00
ENDCHAR
STARTCHAR space
ENCODING 32
SWIDTH 144 0
DWIDTH 2 0
BBX 1 1 0 0
BITMAP
00
ENDCHAR
STARTCHAR exclam
ENCODING 33
SWIDTH 424 0
DWIDTH 6 0
BBX 6 9 0 0
BITMAP
78
FC
FC
FC
FC
FC
FC
FC
78
ENDCHAR
STARTCHAR quotedbl
ENCODING 34
SWIDTH 424 0
DWIDTH 6 0
BBX 6 9 0 0
BITMAP
78
DC
FC
FC
FC
FC
FC
FC
78
ENDCHAR
STARTCHAR numbersign
ENCODING 35
SWIDTH 482 0
DWIDTH 7 0
BBX 7 9 0 0
BITMAP
7C
F6
D6
DE
C6
DE
FE
FE
7C
ENDCHAR
STARTCHAR dollar
ENCODING 36
SWIDTH 578 0
DWIDTH 8 0
BBX 8 9 0 0
BITMAP
7E
C3
DF
E3
FB
C3
FF
FF
7E
ENDCHAR
STARTCHAR percent
ENCODING 37
SWIDTH 578 0
DWIDTH 8 0
BBX 8 9 0 0
BITMAP
7E
B7
97
F9
ED
E9
FF
FF
7E
ENDCHAR
STARTCHAR ampersand
ENCODING 38
SWIDTH 578 0
DWIDTH 8 0
BBX 8 9 0 0
BITMAP
7E
FF
FB
FB
FB
E3
FF
FF
7E
ENDCHAR
STARTCHAR quotesingle
ENCODING 39
SWIDTH 424 0
DWIDTH 6 0
BBX 6 9 0 0
BITMAP
78
FC
FC
FC
FC
FC
FC
FC
78
ENDCHAR
STARTCHAR parenleft
ENCODING 40
SWIDTH 483 0
DWIDTH 7 0
BBX 7 9 0 0
BITMAP
7C
DE
DE
DE
DE
DE
EE
FE
7C
ENDCHAR
STARTCHAR parenright
ENCODING 41
SWIDTH 483 0
DWIDTH 7 0
BBX 7 9 0 0
BITMAP
7C
FE
FE
FE
FE
FE
CE
FE
7C
ENDCHAR
STARTCHAR asterisk
ENCODING 42
SWIDTH 428 0
DWIDTH 6 0
BBX 6 9 0 0
BITMAP
78
EC
CC
FC
FC
FC
FC
FC
78
ENDCHAR
STARTCHAR plus
ENCODING 43
SWIDTH 428 0
DWIDTH 6 0
BBX 6 9 0 0
BITMAP
78
FC
FC
FC
FC
FC
FC
FC
78
ENDCHAR
STARTCHAR comma
ENCODING 44
SWIDTH 428 0
DWIDTH 6 0
BBX 6 9 0 0
BITMAP
78
FC
FC
FC
FC
EC
FC
FC
78
ENDCHAR
STARTCHAR hyphen
ENCODING 45
SWIDTH 428 0
DWIDTH 6 0
BBX 6 9 0 0
BITMAP
78
FC
CC
FC
FC
FC
FC
FC
78
ENDCHAR
STARTCHAR period
ENCODING 46
SWIDTH 428 0
DWIDTH 6 0
BBX 6 9 0 0
BITMAP
78
FC
FC
FC
FC
FC
FC
FC
78
ENDCHAR
STARTCHAR slash
ENCODING 47
SWIDTH 428 0
DWIDTH 6 0
BBX 6 9 0 0
BITMAP
78
EC
FC
FC
DC
DC
FC
FC
78
ENDCHAR
STARTCHAR zero
ENCODING 48
SWIDTH 578 0
DWIDTH 8 0
BBX 8 9 0 0
BITMAP
7E
DF
DF
DF
DF
C3
FF
FF
7E
ENDCHAR
STARTCHAR one
ENCODING 49
SWIDTH 578 0
DWIDTH 8 0
BBX 8 9 0 0
BITMAP
7E
F7
F7
F7
F7
F7
FF
FF
7E
ENDCHAR
STARTCHAR two
ENCODING 50
SWIDTH 578 0
DWIDTH 8 0
BBX 8 9 0 0
BITMAP
7E
DF
FF
C7
DF
C3
FF
FF
7E
ENDCHAR
STARTCHAR three
ENCODING 51
SWIDTH 578 0
DWIDTH 8 0
BBX 8 9 0 0
BITMAP
7E
DF
FB
FB
FF
C3
FF
FF
7E
ENDCHAR
STARTCHAR four
ENCODING 52
SWIDTH 578 0
DWIDTH 8 0
BBX 8 9 0 0
BITMAP
7E
DB
DB
DB
E1
FB
FF
FF
7E
ENDCHAR
STARTCHAR five
ENCODING 53
SWIDTH 578 0
DWIDTH 8 0
BBX 8 9 0 0
BITMAP
7E
DF
D3
FF
FF
C3
FF
FF
7E
ENDCHAR
STARTCHAR six
ENCODING 54
SWIDTH 578 0
DWIDTH 8 0
BBX 8 9 0 0
BITMAP
7E
DF
D3
DD
DD
C3
FF
FF
7E
ENDCHAR
STARTCHAR seven
ENCODING 55
SWIDTH 578 0
DWIDTH 8 0
BBX 8 9 0 0
BITMAP
7E
FB
F7
F7
F7
EF
FF
FF
7E
ENDCHAR
STARTCHAR eight
ENCODING 56
SWIDTH 578 0
DWIDTH 8 0
BBX 8 9 0 0
BITMAP
7E
DF
DF
DF
DF
C3
FF
FF
7E
ENDCHAR
STARTCHAR nine
ENCODING 57
SWIDTH 578 0
DWIDTH 8 0
BBX 8 9 0 0
BITMAP
7E
DF
DF
C3
FF
E3
FF
FF
7E
ENDCHAR
STARTCHAR colon
ENCODING 58
SWIDTH 428 0
DWIDTH 6 0
BBX 6 9 0 0
BITMAP
78
FC
FC
FC
FC
FC
FC
FC
78
ENDCHAR
STARTCHAR semicolon
ENCODING 59
SWIDTH 428 0
DWIDTH 6 0
BBX 6 9 0 0
BITMAP
78
FC
FC
EC
FC
EC
FC
FC
78
ENDCHAR
STARTCHAR less
ENCODING 60
SWIDTH 482 0
DWIDTH 7 0
BBX 7 10 0 1
BITMAP
38
7C
FE
FE
FE
FE
FE
EE
FE
7C
ENDCHAR
STARTCHAR equal
ENCODING 61
SWIDTH 482 0
DWIDTH 7 0
BBX 7 10 0 1
BITMAP
38
7C
FE
FE
C6
FE
FE
FE
FE
7C
ENDCHAR
STARTCHAR greater
ENCODING 62
SWIDTH 482 0
DWIDTH 7 0
BBX 7 10 0 1
BITMAP
38
7C
FE
FE
EE
F6
FE
FE
FE
7C
ENDCHAR
STARTCHAR question
ENCODING 63
SWIDTH 578 0
DWIDTH 8 0
BBX 8 9 0 0
BITMAP
7E
FF
FF
F3
FF
F7
FF
FF
7E
ENDCHAR
STARTCHAR at
ENCODING 64
SWIDTH 578 0
DWIDTH 8 0
BBX 8 9 0 0
BITMAP
7E
BD
BB
A3
BB
B9
CF
FF
7E
ENDCHAR
STARTCHAR A
ENCODING 65
SWIDTH 578 0
DWIDTH 8 0
BBX 8 9 0 0
BITMAP
7E
FB
DB
C3
DF
DF
FF
FF
7E
ENDCHAR
STARTCHAR B
ENCODING 66
SWIDTH 578 0
DWIDTH 8 0
BBX 8 9 0 0
BITMAP
7E
DB
DB
DB
DB
C3
FF
FF
7E
ENDCHAR
STARTCHAR C
ENCODING 67
SWIDTH 578 0
DWIDTH 8 0
BBX 8 9 0 0
BITMAP
7E
DF
DF
DF
DF
C3
FF
FF
7E
ENDCHAR
STARTCHAR D
ENCODING 68
SWIDTH 578 0
DWIDTH 8 0
BBX 8 9 0 0
BITMAP
7E
DD
DD
DD
DD
C3
FF
FF
7E
ENDCHAR
STARTCHAR E
ENCODING 69
SWIDTH 578 0
DWIDTH 8 0
BBX 8 9 0 0
BITMAP
7E
FF
FF
FF
FF
E3
FF
FF
7E
ENDCHAR
STARTCHAR F
ENCODING 70
SWIDTH 578 0
DWIDTH 8 0
BBX 8 9 0 0
BITMAP
7E
FF
FF
FF
FF
FF
FF
FF
7E
ENDCHAR
STARTCHAR G
ENCODING 71
SWIDTH 578 0
DWIDTH 8 0
BBX 8 9 0 0
BITMAP
7E
DF
DF
D9
DD
E3
FF
FF
7E
ENDCHAR
STARTCHAR H
ENCODING 72
SWIDTH 578 0
DWIDTH 8 0
BBX 8 9 0 0
BITMAP
7E
DD
DD
DD
DD
DD
FF
FF
7E
ENDCHAR
STARTCHAR I
ENCODING 73
SWIDTH 578 0
DWIDTH 8 0
BBX 8 9 0 0
BITMAP
7E
F7
F7
F7
F7
C3
FF
FF
7E
ENDCHAR
STARTCHAR J
ENCODING 74
SWIDTH 578 0
DWIDTH 8 0
BBX 8 9 0 0
BITMAP
7E
FF
FF
FF
FF
E7
FF
FF
7E
ENDCHAR
STARTCHAR K
ENCODING 75
SWIDTH 578 0
DWIDTH 8 0
BBX 8 9 0 0
BITMAP
7F
EB
FF
F7
EB
ED
FF
FF
7E
ENDCHAR
STARTCHAR L
ENCODING 76
SWIDTH 578 0
DWIDTH 8 0
BBX 8 9 0 0
BITMAP
7E
EF
EF
EF
EF
E3
FF
FF
7E
ENDCHAR
STARTCHAR M
ENCODING 77
SWIDTH 578 0
DWIDTH 8 0
BBX 8 9 0 0
BITMAP
7E
F5
F5
F5
FD
FD
FF
FF
7E
ENDCHAR
STARTCHAR N
ENCODING 78
SWIDTH 578 0
DWIDTH 8 0
BBX 8 9 0 0
BITMAP
7E
DF
DF
DF
DF
DF
FF
FF
7E
ENDCHAR
STARTCHAR O
ENCODING 79
SWIDTH 578 0
DWIDTH 8 0
BBX 8 9 0 0
BITMAP
7E
DD
DD
DD
DD
C3
FF
FF
7E
ENDCHAR
STARTCHAR P
ENCODING 80
SWIDTH 578 0
DWIDTH 8 0
BBX 8 9 0 0
BITMAP
7E
FF
FF
E3
FF
FF
FF
FF
7E
ENDCHAR
STARTCHAR Q
ENCODING 81
SWIDTH 578 0
DWIDTH 8 0
BBX 8 9 0 0
BITMAP
7E
DD
DD
DD
D5
C7
FB
FF
7E
ENDCHAR
STARTCHAR R
ENCODING 82
SWIDTH 578 0
DWIDTH 8 0
BBX 8 9 0 0
BITMAP
7E
DB
DB
C7
DB
DB
FF
FF
7E
ENDCHAR
STARTCHAR S
ENCODING 83
SWIDTH 578 0
DWIDTH 8 0
BBX 8 9 0 0
BITMAP
7E
DF
DF
FF
FF
E3
FF
FF
7E
ENDCHAR
STARTCHAR T
ENCODING 84
SWIDTH 578 0
DWIDTH 8 0
BBX 8 9 0 0
BITMAP
7E
F7
F7
F7
F7
F7
FF
FF
7E
ENDCHAR
STARTCHAR U
ENCODING 85
SWIDTH 578 0
DWIDTH 8 0
BBX 8 9 0 0
BITMAP
7E
DF
DF
DF
DF
C3
FF
FF
7E
ENDCHAR
STARTCHAR V
ENCODING 86
SWIDTH 578 0
DWIDTH 8 0
BBX 8 9 0 0
BITMAP
7E
DB
FB
EB
EF
F7
FF
FF
7E
ENDCHAR
STARTCHAR W
ENCODING 87
SWIDTH 578 0
DWIDTH 8 0
BBX 8 9 0 0
BITMAP
7F
F5
F5
ED
ED
CB
FF
FF
7E
ENDCHAR
STARTCHAR X
ENCODING 88
SWIDTH 578 0
DWIDTH 8 0
BBX 8 9 0 0
BITMAP
7E
EB
EF
F7
EB
DF
FF
FF
7E
ENDCHAR
STARTCHAR Y
ENCODING 89
SWIDTH 578 0
DWIDTH 8 0
BBX 8 9 0 0
BITMAP
7E
EB
EF
F7
F7
F7
FF
FF
7E
ENDCHAR
STARTCHAR Z
ENCODING 90
SWIDTH 578 0
DWIDTH 8 0
BBX 8 9 0 0
BITMAP
7E
FB
F7
FF
EF
F3
FF
FF
7E
ENDCHAR
STARTCHAR bracketleft
ENCODING 91
SWIDTH 484 0
DWIDTH 7 0
BBX 7 9 0 0
BITMAP
7C
EE
EE
EE
EE
EE
EE
FE
7C
ENDCHAR
STARTCHAR backslash
ENCODING 92
SWIDTH 516 0
DWIDTH 7 0
BBX 7 9 0 0
BITMAP
7E
EE
EE
EE
FE
F6
FE
FE
7C
ENDCHAR
STARTCHAR bracketright
ENCODING 93
SWIDTH 484 0
DWIDTH 7 0
BBX 7 9 0 0
BITMAP
7C
EE
EE
EE
EE
EE
EE
FE
7C
ENDCHAR
STARTCHAR asciicircum
ENCODING 94
SWIDTH 355 0
DWIDTH 5 0
BBX 5 5 0 3
BITMAP
70
70
F8
F8
50
ENDCHAR
STARTCHAR underscore
ENCODING 95
SWIDTH 428 0
DWIDTH 6 0
BBX 6 9 0 0
BITMAP
78
FC
FC
FC
FC
FC
84
FC
78
ENDCHAR
STARTCHAR grave
ENCODING 96
SWIDTH 308 0
DWIDTH 4 0
BBX 4 5 0 0
BITMAP
60
B0
D0
50
70
ENDCHAR
STARTCHAR a
ENCODING 97
SWIDTH 578 0
DWIDTH 8 0
BBX 8 9 0 0
BITMAP
7E
FB
FB
C3
DB
C3
FF
FF
7E
ENDCHAR
STARTCHAR b
ENCODING 98
SWIDTH 578 0
DWIDTH 8 0
BBX 8 9 0 0
BITMAP
7E
DB
DB
DB
DB
C3
FF
FF
7E
ENDCHAR
STARTCHAR c
ENCODING 99
SWIDTH 578 0
DWIDTH 8 0
BBX 8 9 0 0
BITMAP
7E
DF
DF
DF
DF
C3
FF
FF
7E
ENDCHAR
STARTCHAR d
ENCODING 100
SWIDTH 578 0
DWIDTH 8 0
BBX 8 9 0 0
BITMAP
7E
DD
DD
DD
DD
C3
FF
FF
7E
ENDCHAR
STARTCHAR e
ENCODING 101
SWIDTH 578 0
DWIDTH 8 0
BBX 8 9 0 0
BITMAP
7E
DB
C3
DF
DF
E3
FF
FF
7E
ENDCHAR
STARTCHAR f
ENCODING 102
SWIDTH 578 0
DWIDTH 8 0
BBX 8 9 0 0
BITMAP
7E
FF
FF
FF
FF
FF
FF
FF
7E
ENDCHAR
STARTCHAR g
ENCODING 103
SWIDTH 578 0
DWIDTH 8 0
BBX 8 9 0 0
BITMAP
7E
DF
DF
D9
DD
E3
FF
FF
7E
ENDCHAR
STARTCHAR h
ENCODING 104
SWIDTH 578 0
DWIDTH 8 0
BBX 8 9 0 0
BITMAP
7E
DD
DD
DD
DD
DD
FF
FF
7E
ENDCHAR
STARTCHAR i
ENCODING 105
SWIDTH 578 0
DWIDTH 8 0
BBX 8 9 0 0
BITMAP
7E
F7
F7
F7
F7
C3
FF
FF
7E
ENDCHAR
STARTCHAR j
ENCODING 106
SWIDTH 578 0
DWIDTH 8 0
BBX 8 9 0 0
BITMAP
7E
FF
FF
FF
FF
E7
FF
FF
7E
ENDCHAR
STARTCHAR k
ENCODING 107
SWIDTH 578 0
DWIDTH 8 0
BBX 8 9 0 0
BITMAP
7F
EB
FF
F7
EB
ED
FF
FF
7E
ENDCHAR
STARTCHAR l
ENCODING 108
SWIDTH 578 0
DWIDTH 8 0
BBX 8 9 0 0
BITMAP
7E
EF
EF
EF
EF
E3
FF
FF
7E
ENDCHAR
STARTCHAR m
ENCODING 109
SWIDTH 578 0
DWIDTH 8 0
BBX 8 9 0 0
BITMAP
7E
F5
F5
F5
FD
FD
FF
FF
7E
ENDCHAR
STARTCHAR n
ENCODING 110
SWIDTH 578 0
DWIDTH 8 0
BBX 8 9 0 0
BITMAP
7E
DF
DF
DF
DF
DF
FF
FF
7E
ENDCHAR
STARTCHAR o
ENCODING 111
SWIDTH 578 0
DWIDTH 8 0
BBX 8 9 0 0
BITMAP
7E
DD
DD
DD
DD
C3
FF
FF
7E
ENDCHAR
STARTCHAR p
ENCODING 112
SWIDTH 578 0
DWIDTH 8 0
BBX 8 9 0 0
BITMAP
7E
FF
FF
E3
FF
FF
FF
FF
7E
ENDCHAR
STARTCHAR q
ENCODING 113
SWIDTH 578 0
DWIDTH 8 0
BBX 8 9 0 0
BITMAP
7E
DD
DD
DD
D5
C7
FB
FF
7E
ENDCHAR
STARTCHAR r
ENCODING 114
SWIDTH 578 0
DWIDTH 8 0
BBX 8 9 0 0
BITMAP
7E
DB
DB
C7
DB
DB
FF
FF
7E
ENDCHAR
STARTCHAR s
ENCODING 115
SWIDTH 578 0
DWIDTH 8 0
BBX 8 9 0 0
BITMAP
7E
DF
DF
FF
FF
E3
FF
FF
7E
ENDCHAR
STARTCHAR t
ENCODING 116
SWIDTH 578 0
DWIDTH 8 0
BBX 8 9 0 0
BITMAP
7E
F7
F7
F7
F7
F7
FF
FF
7E
ENDCHAR
STARTCHAR u
ENCODING 117
SWIDTH 578 0
DWIDTH 8 0
BBX 8 9 0 0
BITMAP
7E
DF
DF
DF
DF
C3
FF
FF
7E
ENDCHAR
STARTCHAR v
ENCODING 118
SWIDTH 578 0
DWIDTH 8 0
BBX 8 9 0 0
BITMAP
7E
DB
FB
EB
EF
F7
FF
FF
7E
ENDCHAR
STARTCHAR w
ENCODING 119
SWIDTH 578 0
DWIDTH 8 0
BBX 8 9 0 0
BITMAP
7F
F5
F5
ED
ED
CB
FF
FF
7E
ENDCHAR
STARTCHAR x
ENCODING 120
SWIDTH 578 0
DWIDTH 8 0
BBX 8 9 0 0
BITMAP
7E
EB
EF
F7
EB
DF
FF
FF
7E
ENDCHAR
STARTCHAR y
ENCODING 121
SWIDTH 578 0
DWIDTH 8 0
BBX 8 9 0 0
BITMAP
7E
EB
EF
F7
F7
F7
FF
FF
7E
ENDCHAR
STARTCHAR z
ENCODING 122
SWIDTH 578 0
DWIDTH 8 0
BBX 8 9 0 0
BITMAP
7E
FB
F7
FF
EF
F3
FF
FF
7E
ENDCHAR
STARTCHAR braceleft
ENCODING 123
SWIDTH 484 0
DWIDTH 7 0
BBX 7 9 0 0
BITMAP
7C
DE
DE
9E
DE
DE
E6
FE
7C
ENDCHAR
STARTCHAR bar
ENCODING 124
SWIDTH 484 0
DWIDTH 7 0
BBX 7 9 0 0
BITMAP
6C
EE
EE
EE
EE
EE
FE
FE
7C
ENDCHAR
STARTCHAR braceright
ENCODING 125
SWIDTH 484 0
DWIDTH 7 0
BBX 7 9 0 0
BITMAP
7C
FE
FE
F2
FE
FE
CE
FE
7C
ENDCHAR
STARTCHAR asciitilde
ENCODING 126
SWIDTH 578 0
DWIDTH 8 0
BBX 8 9 0 0
BITMAP
7E
FF
D3
FF
FF
FF
FF
FF
7E
ENDCHAR
STARTCHAR uni00A0
ENCODING 160
SWIDTH 151 0
DWIDTH 2 0
BBX 1 1 0 0
BITMAP
00
ENDCHAR
STARTCHAR exclamdown
ENCODING 161
SWIDTH 424 0
DWIDTH 6 0
BBX 6 9 0 0
BITMAP
78
FC
FC
FC
FC
FC
FC
FC
78
ENDCHAR
STARTCHAR cent
ENCODING 162
SWIDTH 578 0
DWIDTH 8 0
BBX 8 9 0 0
BITMAP
7E
E3
D7
D7
D7
E3
F7
FF
7E
ENDCHAR
STARTCHAR sterling
ENCODING 163
SWIDTH 578 0
DWIDTH 8 0
BBX 8 9 0 0
BITMAP
7E
EB
EF
EF
EF
E3
FF
FF
7E
ENDCHAR
STARTCHAR currency
ENCODING 164
SWIDTH 578 0
DWIDTH 8 0
BBX 8 9 0 0
BITMAP
7E
FB
FB
FB
DF
FF
FF
FF
7E
ENDCHAR
STARTCHAR yen
ENCODING 165
SWIDTH 578 0
DWIDTH 8 0
BBX 8 9 0 0
BITMAP
7E
FB
EF
E7
FF
FF
FF
FF
7E
ENDCHAR
STARTCHAR brokenbar
ENCODING 166
SWIDTH 484 0
DWIDTH 7 0
BBX 7 9 0 0
BITMAP
7C
EE
EE
FE
EE
EE
FE
FE
7C
ENDCHAR
STARTCHAR section
ENCODING 167
SWIDTH 578 0
DWIDTH 8 0
BBX 8 9 0 0
BITMAP
7E
DF
E7
EF
FB
FB
E7
FF
7E
ENDCHAR
STARTCHAR dieresis
ENCODING 168
SWIDTH 388 0
DWIDTH 5 0
BBX 5 4 0 0
BITMAP
78
F8
A8
78
ENDCHAR
STARTCHAR copyright
ENCODING 169
SWIDTH 578 0
DWIDTH 8 0
BBX 8 9 0 0
BITMAP
7E
FD
BF
FF
BF
FD
E7
FF
7E
ENDCHAR
STARTCHAR ordfeminine
ENCODING 170
SWIDTH 578 0
DWIDTH 8 0
BBX 8 9 0 0
BITMAP
7E
FB
E3
FB
E3
FF
FF
FF
7E
ENDCHAR
STARTCHAR guillemotleft
ENCODING 171
SWIDTH 578 0
DWIDTH 8 0
BBX 8 9 0 0
BITMAP
7E
EB
F7
DF
F7
EB
FF
FF
7E
ENDCHAR
STARTCHAR uni00AD
ENCODING 173
SWIDTH 428 0
DWIDTH 6 0
BBX 6 9 0 0
BITMAP
78
FC
CC
FC
FC
FC
FC
FC
78
ENDCHAR
STARTCHAR registered
ENCODING 174
SWIDTH 578 0
DWIDTH 8 0
BBX 8 9 0 0
BITMAP
7E
FD
BB
E7
BB
FD
E7
FF
7E
ENDCHAR
STARTCHAR macron
ENCODING 175
SWIDTH 428 0
DWIDTH 6 0
BBX 6 4 0 0
BITMAP
78
FC
CC
78
ENDCHAR
STARTCHAR degree
ENCODING 176
SWIDTH 428 0
DWIDTH 6 0
BBX 6 9 0 0
BITMAP
78
FC
CC
FC
FC
FC
FC
FC
78
ENDCHAR
STARTCHAR plusminus
ENCODING 177
SWIDTH 428 0
DWIDTH 6 0
BBX 6 9 0 0
BITMAP
78
FC
FC
FC
CC
FC
FC
FC
78
ENDCHAR
STARTCHAR uni00B2
ENCODING 178
SWIDTH 578 0
DWIDTH 8 0
BBX 8 9 0 0
BITMAP
7E
FB
FF
E7
FF
FF
FF
FF
7E
ENDCHAR
STARTCHAR uni00B3
ENCODING 179
SWIDTH 578 0
DWIDTH 8 0
BBX 8 9 0 0
BITMAP
7E
FB
FB
E3
FF
FF
FF
FF
7E
ENDCHAR
STARTCHAR acute
ENCODING 180
SWIDTH 308 0
DWIDTH 4 0
BBX 4 5 0 0
BITMAP
60
50
F0
B0
E0
ENDCHAR
STARTCHAR uni00B5
ENCODING 181
SWIDTH 578 0
DWIDTH 8 0
BBX 8 9 0 0
BITMAP
7E
DF
DF
DF
DF
C3
DF
FF
7E
ENDCHAR
STARTCHAR paragraph
ENCODING 182
SWIDTH 578 0
DWIDTH 8 0
BBX 8 9 0 0
BITMAP
7E
C7
C7
F7
F7
F7
FF
FF
7E
ENDCHAR
STARTCHAR periodcentered
ENCODING 183
SWIDTH 428 0
DWIDTH 6 0
BBX 6 9 0 0
BITMAP
78
FC
FC
FC
FC
FC
FC
FC
78
ENDCHAR
STARTCHAR cedilla
ENCODING 184
SWIDTH 101 0
DWIDTH 1 0
BBX 1 2 0 -2
BITMAP
80
80
ENDCHAR
STARTCHAR uni00B9
ENCODING 185
SWIDTH 578 0
DWIDTH 8 0
BBX 8 9 0 0
BITMAP
7E
F7
F7
F7
FF
FF
FF
FF
7E
ENDCHAR
STARTCHAR ordmasculine
ENCODING 186
SWIDTH 578 0
DWIDTH 8 0
BBX 8 9 0 0
BITMAP
7E
FF
FF
FF
E3
FF
FF
FF
7E
ENDCHAR
STARTCHAR guillemotright
ENCODING 187
SWIDTH 578 0
DWIDTH 8 0
BBX 8 9 0 0
BITMAP
7E
D7
EF
F7
EF
F7
FF
FF
7E
ENDCHAR
STARTCHAR onequarter
ENCODING 188
SWIDTH 578 0
DWIDTH 8 0
BBX 8 9 0 0
BITMAP
FE
DF
DF
ED
F5
F9
FD
FF
7E
ENDCHAR
STARTCHAR onehalf
ENCODING 189
SWIDTH 578 0
DWIDTH 8 0
BBX 8 9 0 0
BITMAP
FE
DF
D9
EF
EF
F1
FF
FF
7E
ENDCHAR
STARTCHAR threequarters
ENCODING 190
SWIDTH 578 0
DWIDTH 8 0
BBX 8 9 0 0
BITMAP
FE
DF
D9
EF
EF
F9
FF
FF
7E
ENDCHAR
STARTCHAR questiondown
ENCODING 191
SWIDTH 578 0
DWIDTH 8 0
BBX 8 9 0 0
BITMAP
7E
FF
E7
FF
FF
E3
FF
FF
7E
ENDCHAR
STARTCHAR Agrave
ENCODING 192
SWIDTH 578 0
DWIDTH 8 0
BBX 8 14 0 0
BITMAP
30
68
28
3C
18
66
FB
DB
C3
DF
DF
FF
FF
7E
ENDCHAR
STARTCHAR Aacute
ENCODING 193
SWIDTH 578 0
DWIDTH 8 0
BBX 8 14 0 0
BITMAP
0C
1E
16
3C
18
66
FB
DB
C3
DF
DF
FF
FF
7E
ENDCHAR
STARTCHAR Acircumflex
ENCODING 194
SWIDTH 578 0
DWIDTH 8 0
BBX 8 14 0 0
BITMAP
18
34
2C
2E
3C
62
FB
DB
C3
DF
DF
FF
FF
7E
ENDCHAR
STARTCHAR Atilde
ENCODING 195
SWIDTH 578 0
DWIDTH 8 0
BBX 8 14 0 0
BITMAP
08
3E
7E
6A
3E
62
FB
DB
C3
DF
DF
FF
FF
7E
ENDCHAR
STARTCHAR Adieresis
ENCODING 196
SWIDTH 578 0
DWIDTH 8 0
BBX 8 13 0 0
BITMAP
3C
3E
6A
3C
62
FB
DB
C3
DF
DF
FF
FF
7E
ENDCHAR
STARTCHAR Aring
ENCODING 197
SWIDTH 578 0
DWIDTH 8 0
BBX 8 13 0 0
BITMAP
3C
2E
2E
3E
62
FB
DB
C3
DF
DF
FF
FF
7E
ENDCHAR
STARTCHAR AE
ENCODING 198
SWIDTH 578 0
DWIDTH 8 0
BBX 8 9 0 0
BITMAP
7E
D7
D7
D7
C7
F3
FF
FF
7E
ENDCHAR
STARTCHAR Ccedilla
ENCODING 199
SWIDTH 578 0
DWIDTH 8 0
BBX 8 9 0 0
BITMAP
7E
DF
DF
DF
DF
C3
F7
EF
7E
ENDCHAR
STARTCHAR Egrave
ENCODING 200
SWIDTH 578 0
DWIDTH 8 0
BBX 8 14 0 0
BITMAP
38
68
2C
3C
1C
62
FF
FF
FF
FF
E3
FF
FF
7E
ENDCHAR
STARTCHAR Eacute
ENCODING 201
SWIDTH 578 0
DWIDTH 8 0
BBX 8 14 0 0
BITMAP
0C
1A
16
14
1C
62
FF
FF
FF
FF
E3
FF
FF
7E
ENDCHAR
STARTCHAR Ecircumflex
ENCODING 202
SWIDTH 578 0
DWIDTH 8 0
BBX 8 14 0 0
BITMAP
1C
14
3E
2A
3E
62
FF
FF
FF
FF
E3
FF
FF
7E
ENDCHAR
STARTCHAR Edieresis
ENCODING 203
SWIDTH 578 0
DWIDTH 8 0
BBX 8 13 0 0
BITMAP
1C
3E
2A
3E
62
FF
FF
FF
FF
E3
FF
FF
7E
ENDCHAR
STARTCHAR Igrave
ENCODING 204
SWIDTH 578 0
DWIDTH 8 0
BBX 8 14 0 0
BITMAP
38
68
2C
3C
3C
42
F7
F7
F7
F7
C3
FF
FF
7E
ENDCHAR
STARTCHAR Iacute
ENCODING 205
SWIDTH 578 0
DWIDTH 8 0
BBX 8 14 0 0
BITMAP
0C
1A
16
14
3C
42
F7
F7
F7
F7
C3
FF
FF
7E
ENDCHAR
STARTCHAR Icircumflex
ENCODING 206
SWIDTH 578 0
DWIDTH 8 0
BBX 8 14 0 0
BITMAP
1C
14
3E
2A
3E
42
F7
F7
F7
F7
C3
FF
FF
7E
ENDCHAR
STARTCHAR Idieresis
ENCODING 207
SWIDTH 578 0
DWIDTH 8 0
BBX 8 13 0 0
BITMAP
1C
3E
2A
3E
42
F7
F7
F7
F7
C3
FF
FF
7E
ENDCHAR
STARTCHAR Eth
ENCODING 208
SWIDTH 578 0
DWIDTH 8 0
BBX 8 9 0 0
BITMAP
7E
DD
DD
DD
DD
C3
FF
FF
7E
ENDCHAR
STARTCHAR Ntilde
ENCODING 209
SWIDTH 578 0
DWIDTH 8 0
BBX 8 14 0 0
BITMAP
08
3E
7E
6A
3E
42
DF
DF
DF
DF
DF
FF
FF
7E
ENDCHAR
STARTCHAR Ograve
ENCODING 210
SWIDTH 578 0
DWIDTH 8 0
BBX 8 14 0 0
BITMAP
38
68
28
3C
1C
62
DD
DD
DD
DD
C3
FF
FF
7E
ENDCHAR
STARTCHAR Oacute
ENCODING 211
SWIDTH 578 0
DWIDTH 8 0
BBX 8 14 0 0
BITMAP
0C
1E
16
14
1C
62
DD
DD
DD
DD
C3
FF
FF
7E
ENDCHAR
STARTCHAR Ocircumflex
ENCODING 212
SWIDTH 578 0
DWIDTH 8 0
BBX 8 14 0 0
BITMAP
1C
14
3E
2E
3E
62
DD
DD
DD
DD
C3
FF
FF
7E
ENDCHAR
STARTCHAR Otilde
ENCODING 213
SWIDTH 578 0
DWIDTH 8 0
BBX 8 14 0 0
BITMAP
08
3E
7E
6A
3E
62
DD
DD
DD
DD
C3
FF
FF
7E
ENDCHAR
STARTCHAR Odieresis
ENCODING 214
SWIDTH 578 0
DWIDTH 8 0
BBX 8 13 0 0
BITMAP
3C
3E
2A
3C
62
DD
DD
DD
DD
C3
FF
FF
7E
ENDCHAR
STARTCHAR multiply
ENCODING 215
SWIDTH 578 0
DWIDTH 8 0
BBX 8 9 0 0
BITMAP
7E
FF
EF
FF
FF
FF
FF
FF
7E
ENDCHAR
STARTCHAR Oslash
ENCODING 216
SWIDTH 578 0
DWIDTH 8 0
BBX 8 9 0 0
BITMAP
7E
DB
D7
DF
FF
C3
FF
FF
7E
ENDCHAR
STARTCHAR Ugrave
ENCODING 217
SWIDTH 578 0
DWIDTH 8 0
BBX 8 14 0 0
BITMAP
38
68
2C
3C
38
5E
DF
DF
DF
DF
C3
FF
FF
7E
ENDCHAR
STARTCHAR Uacute
ENCODING 218
SWIDTH 578 0
DWIDTH 8 0
BBX 8 14 0 0
BITMAP
0C
1A
16
14
3C
5E
DF
DF
DF
DF
C3
FF
FF
7E
ENDCHAR
STARTCHAR Ucircumflex
ENCODING 219
SWIDTH 578 0
DWIDTH 8 0
BBX 8 14 0 0
BITMAP
1C
14
3E
2A
3E
5E
DF
DF
DF
DF
C3
FF
FF
7E
ENDCHAR
STARTCHAR Udieresis
ENCODING 220
SWIDTH 578 0
DWIDTH 8 0
BBX 8 13 0 0
BITMAP
1C
3E
2A
3E
5E
DF
DF
DF
DF
C3
FF
FF
7E
ENDCHAR
STARTCHAR Yacute
ENCODING 221
SWIDTH 578 0
DWIDTH 8 0
BBX 8 14 0 0
BITMAP
0C
1E
16
14
3C
5A
EB
EF
F7
F7
F7
FF
FF
7E
ENDCHAR
STARTCHAR Thorn
ENCODING 222
SWIDTH 578 0
DWIDTH 8 0
BBX 8 9 0 0
BITMAP
7E
E3
FF
FF
FF
FF
FF
FF
7E
ENDCHAR
STARTCHAR germandbls
ENCODING 223
SWIDTH 578 0
DWIDTH 8 0
BBX 8 9 0 0
BITMAP
7E
DB
DB
DF
DF
D3
FF
FF
7E
ENDCHAR
STARTCHAR agrave
ENCODING 224
SWIDTH 578 0
DWIDTH 8 0
BBX 8 14 0 0
BITMAP
38
68
2C
3C
18
66
FB
FB
C3
DB
C3
FF
FF
7E
ENDCHAR
STARTCHAR aacute
ENCODING 225
SWIDTH 578 0
DWIDTH 8 0
BBX 8 14 0 0
BITMAP
0C
1E
16
14
1C
62
FB
FB
C3
DB
C3
FF
FF
7E
ENDCHAR
STARTCHAR acircumflex
ENCODING 226
SWIDTH 578 0
DWIDTH 8 0
BBX 8 14 0 0
BITMAP
1C
14
3E
2A
3E
42
FB
FB
C3
DB
C3
FF
FF
7E
ENDCHAR
STARTCHAR atilde
ENCODING 227
SWIDTH 578 0
DWIDTH 8 0
BBX 8 14 0 0
BITMAP
08
3E
7E
6A
3E
42
FB
FB
C3
DB
C3
FF
FF
7E
ENDCHAR
STARTCHAR adieresis
ENCODING 228
SWIDTH 578 0
DWIDTH 8 0
BBX 8 13 0 0
BITMAP
3C
3E
2A
3C
42
FB
FB
C3
DB
C3
FF
FF
7E
ENDCHAR
STARTCHAR aring
ENCODING 229
SWIDTH 578 0
DWIDTH 8 0
BBX 8 13 0 0
BITMAP
3C
2E
2E
3E
42
FB
FB
C3
DB
C3
FF
FF
7E
ENDCHAR
STARTCHAR ae
ENCODING 230
SWIDTH 578 0
DWIDTH 8 0
BBX 8 9 0 0
BITMAP
7E
D7
D7
D7
C7
F3
FF
FF
7E
ENDCHAR
STARTCHAR ccedilla
ENCODING 231
SWIDTH 578 0
DWIDTH 8 0
BBX 8 9 0 0
BITMAP
7E
DF
DF
DF
DF
C3
FF
E7
7E
ENDCHAR
STARTCHAR egrave
ENCODING 232
SWIDTH 578 0
DWIDTH 8 0
BBX 8 14 0 0
BITMAP
30
68
28
3C
18
66
DB
C3
DF
DF
E3
FF
FF
7E
ENDCHAR
STARTCHAR eacute
ENCODING 233
SWIDTH 578 0
DWIDTH 8 0
BBX 8 14 0 0
BITMAP
0C
16
16
3C
18
66
DB
C3
DF
DF
E3
FF
FF
7E
ENDCHAR
STARTCHAR ecircumflex
ENCODING 234
SWIDTH 578 0
DWIDTH 8 0
BBX 8 14 0 0
BITMAP
18
3C
2C
3E
3C
42
DB
C3
DF
DF
E3
FF
FF
7E
ENDCHAR
STARTCHAR edieresis
ENCODING 235
SWIDTH 578 0
DWIDTH 8 0
BBX 8 13 0 0
BITMAP
3C
7E
76
3C
42
DB
C3
DF
DF
E3
FF
FF
7E
ENDCHAR
STARTCHAR igrave
ENCODING 236
SWIDTH 578 0
DWIDTH 8 0
BBX 8 14 0 0
BITMAP
38
68
2C
3C
3C
42
F7
F7
F7
F7
C3
FF
FF
7E
ENDCHAR
STARTCHAR iacute
ENCODING 237
SWIDTH 578 0
DWIDTH 8 0
BBX 8 14 0 0
BITMAP
0C
1A
16
14
3C
42
F7
F7
F7
F7
C3
FF
FF
7E
ENDCHAR
STARTCHAR icircumflex
ENCODING 238
SWIDTH 578 0
DWIDTH 8 0
BBX 8 14 0 0
BITMAP
1C
14
3E
2A
3E
42
F7
F7
F7
F7
C3
FF
FF
7E
ENDCHAR
STARTCHAR idieresis
ENCODING 239
SWIDTH 578 0
DWIDTH 8 0
BBX 8 13 0 0
BITMAP
1C
3E
2A
3E
42
F7
F7
F7
F7
C3
FF
FF
7E
ENDCHAR
STARTCHAR eth
ENCODING 240
SWIDTH 578 0
DWIDTH 8 0
BBX 8 9 0 0
BITMAP
7E
DD
DD
DD
DD
C3
FF
FF
7E
ENDCHAR
STARTCHAR ntilde
ENCODING 241
SWIDTH 578 0
DWIDTH 8 0
BBX 8 14 0 0
BITMAP
08
3E
7E
6A
3E
42
DF
DF
DF
DF
DF
FF
FF
7E
ENDCHAR
STARTCHAR oacute
ENCODING 243
SWIDTH 578 0
DWIDTH 8 0
BBX 8 14 0 0
BITMAP
0C
1E
16
3C
1C
62
DD
DD
DD
DD
C3
FF
FF
7E
ENDCHAR
STARTCHAR ocircumflex
ENCODING 244
SWIDTH 578 0
DWIDTH 8 0
BBX 8 14 0 0
BITMAP
1C
14
3E
2A
3E
62
DD
DD
DD
DD
C3
FF
FF
7E
ENDCHAR
STARTCHAR otilde
ENCODING 245
SWIDTH 578 0
DWIDTH 8 0
BBX 8 14 0 0
BITMAP
08
3E
7E
6A
3E
62
DD
DD
DD
DD
C3
FF
FF
7E
ENDCHAR
STARTCHAR odieresis
ENCODING 246
SWIDTH 578 0
DWIDTH 8 0
BBX 8 13 0 0
BITMAP
1C
3E
2A
3E
62
DD
DD
DD
DD
C3
FF
FF
7E
ENDCHAR
STARTCHAR divide
ENCODING 247
SWIDTH 428 0
DWIDTH 6 0
BBX 6 9 0 0
BITMAP
78
FC
CC
FC
FC
FC
FC
FC
78
ENDCHAR
STARTCHAR oslash
ENCODING 248
SWIDTH 578 0
DWIDTH 8 0
BBX 8 9 0 0
BITMAP
7E
DB
D7
DF
FF
C3
FF
FF
7E
ENDCHAR
STARTCHAR ugrave
ENCODING 249
SWIDTH 578 0
DWIDTH 8 0
BBX 8 14 0 0
BITMAP
38
68
2C
3C
38
5E
DF
DF
DF
DF
C3
FF
FF
7E
ENDCHAR
STARTCHAR uacute
ENCODING 250
SWIDTH 578 0
DWIDTH 8 0
BBX 8 14 0 0
BITMAP
0C
1A
16
14
3C
5E
DF
DF
DF
DF
C3
FF
FF
7E
ENDCHAR
STARTCHAR ucircumflex
ENCODING 251
SWIDTH 578 0
DWIDTH 8 0
BBX 8 14 0 0
BITMAP
1C
14
3E
2A
3E
5E
DF
DF
DF
DF
C3
FF
FF
7E
ENDCHAR
STARTCHAR udieresis
ENCODING 252
SWIDTH 578 0
DWIDTH 8 0
BBX 8 13 0 0
BITMAP
1C
3E
2A
3E
5E
DF
DF
DF
DF
C3
FF
FF
7E
ENDCHAR
STARTCHAR yacute
ENCODING 253
SWIDTH 578 0
DWIDTH 8 0
BBX 8 14 0 0
BITMAP
0C
1E
16
14
3C
5A
EB
EF
F7
F7
F7
FF
FF
7E
ENDCHAR
STARTCHAR thorn
ENCODING 254
SWIDTH 578 0
DWIDTH 8 0
BBX 8 9 0 0
BITMAP
7E
E3
FF
FF
FF
FF
FF
FF
7E
ENDCHAR
STARTCHAR ydieresis
ENCODING 255
SWIDTH 578 0
DWIDTH 8 0
BBX 8 13 0 0
BITMAP
3C
3E
2A
3C
5A
EB
EF
F7
F7
F7
FF
FF
7E
ENDCHAR
STARTCHAR Amacron
ENCODING 256
SWIDTH 578 0
DWIDTH 8 0
BBX 8 13 0 0
BITMAP
3C
7E
66
3E
62
FB
DB
C3
DF
DF
FF
FF
7E
ENDCHAR
STARTCHAR amacron
ENCODING 257
SWIDTH 578 0
DWIDTH 8 0
BBX 8 13 0 0
BITMAP
3E
7E
62
3E
42
FB
FB
C3
DB
C3
FF
FF
7E
ENDCHAR
STARTCHAR Abreve
ENCODING 258
SWIDTH 578 0
DWIDTH 8 0
BBX 8 13 0 0
BITMAP
3C
7E
6E
3E
62
FB
DB
C3
DF
DF
FF
FF
7E
ENDCHAR
STARTCHAR abreve
ENCODING 259
SWIDTH 578 0
DWIDTH 8 0
BBX 8 13 0 0
BITMAP
3E
7E
6A
3E
42
FB
FB
C3
DB
C3
FF
FF
7E
ENDCHAR
STARTCHAR Aogonek
ENCODING 260
SWIDTH 578 0
DWIDTH 8 0
BBX 8 9 0 0
BITMAP
7E
FB
DB
C3
DF
DF
FB
FB
7E
ENDCHAR
STARTCHAR aogonek
ENCODING 261
SWIDTH 578 0
DWIDTH 8 0
BBX 8 9 0 0
BITMAP
7E
FB
FB
C3
DB
C3
FF
E7
7E
ENDCHAR
STARTCHAR Cacute
ENCODING 262
SWIDTH 578 0
DWIDTH 8 0
BBX 8 14 0 0
BITMAP
0C
1A
16
14
1C
62
DF
DF
DF
DF
C3
FF
FF
7E
ENDCHAR
STARTCHAR cacute
ENCODING 263
SWIDTH 578 0
DWIDTH 8 0
BBX 8 14 0 0
BITMAP
0C
1A
16
14
1C
62
DF
DF
DF
DF
C3
FF
FF
7E
ENDCHAR
STARTCHAR Ccircumflex
ENCODING 264
SWIDTH 578 0
DWIDTH 8 0
BBX 8 14 0 0
BITMAP
1C
34
3C
2E
3E
42
DF
DF
DF
DF
C3
FF
FF
7E
ENDCHAR
STARTCHAR ccircumflex
ENCODING 265
SWIDTH 578 0
DWIDTH 8 0
BBX 8 14 0 0
BITMAP
18
34
2C
2E
3C
42
DF
DF
DF
DF
C3
FF
FF
7E
ENDCHAR
STARTCHAR Cdotaccent
ENCODING 266
SWIDTH 578 0
DWIDTH 8 0
BBX 8 13 0 0
BITMAP
3C
7E
6E
7E
42
DF
DF
DF
DF
C3
FF
FF
7E
ENDCHAR
STARTCHAR cdotaccent
ENCODING 267
SWIDTH 578 0
DWIDTH 8 0
BBX 8 13 0 0
BITMAP
3C
7E
7E
7E
42
DF
DF
DF
DF
C3
FF
FF
7E
ENDCHAR
STARTCHAR Ccaron
ENCODING 268
SWIDTH 578 0
DWIDTH 8 0
BBX 8 14 0 0
BITMAP
3C
7C
34
2C
3C
42
DF
DF
DF
DF
C3
FF
FF
7E
ENDCHAR
STARTCHAR ccaron
ENCODING 269
SWIDTH 578 0
DWIDTH 8 0
BBX 8 14 0 0
BITMAP
14
3E
2E
34
3C
42
DF
DF
DF
DF
C3
FF
FF
7E
ENDCHAR
STARTCHAR Dcaron
ENCODING 270
SWIDTH 578 0
DWIDTH 8 0
BBX 8 14 0 0
BITMAP
34
3E
2C
34
3C
42
DD
DD
DD
DD
C3
FF
FF
7E
ENDCHAR
STARTCHAR dcaron
ENCODING 271
SWIDTH 578 0
DWIDTH 8 0
BBX 8 9 0 0
BITMAP
7F
FD
FB
FB
FB
C7
FF
FF
7E
ENDCHAR
STARTCHAR Dcroat
ENCODING 272
SWIDTH 578 0
DWIDTH 8 0
BBX 8 9 0 0
BITMAP
7E
DD
8D
DD
DD
C3
FF
FF
7E
ENDCHAR
STARTCHAR dcroat
ENCODING 273
SWIDTH 578 0
DWIDTH 8 0
BBX 8 9 0 0
BITMAP
7E
DD
8D
DD
DD
C3
FF
FF
7E
ENDCHAR
STARTCHAR Emacron
ENCODING 274
SWIDTH 578 0
DWIDTH 8 0
BBX 8 13 0 0
BITMAP
3E
7E
62
3E
62
FF
FF
FF
FF
E3
FF
FF
7E
ENDCHAR
STARTCHAR emacron
ENCODING 275
SWIDTH 578 0
DWIDTH 8 0
BBX 8 13 0 0
BITMAP
3C
7E
66
3E
42
DB
C3
DF
DF
E3
FF
FF
7E
ENDCHAR
STARTCHAR Ebreve
ENCODING 276
SWIDTH 578 0
DWIDTH 8 0
BBX 8 13 0 0
BITMAP
3E
7E
6A
3E
62
FF
FF
FF
FF
E3
FF
FF
7E
ENDCHAR
STARTCHAR ebreve
ENCODING 277
SWIDTH 578 0
DWIDTH 8 0
BBX 8 13 0 0
BITMAP
3C
7E
6E
3E
42
DB
C3
DF
DF
E3
FF
FF
7E
ENDCHAR
STARTCHAR Edotaccent
ENCODING 278
SWIDTH 578 0
DWIDTH 8 0
BBX 8 13 0 0
BITMAP
3E
7E
76
3E
62
FF
FF
FF
FF
E3
FF
FF
7E
ENDCHAR
STARTCHAR edotaccent
ENCODING 279
SWIDTH 578 0
DWIDTH 8 0
BBX 8 13 0 0
BITMAP
3C
7E
7E
7E
42
DB
C3
DF
DF
E3
FF
FF
7E
ENDCHAR
STARTCHAR Eogonek
ENCODING 280
SWIDTH 578 0
DWIDTH 8 0
BBX 8 9 0 0
BITMAP
7E
FF
FF
FF
FF
E7
FB
FF
7E
ENDCHAR
STARTCHAR eogonek
ENCODING 281
SWIDTH 578 0
DWIDTH 8 0
BBX 8 9 0 0
BITMAP
7E
DB
C3
DF
DF
E3
FF
F7
7E
ENDCHAR
STARTCHAR Ecaron
ENCODING 282
SWIDTH 578 0
DWIDTH 8 0
BBX 8 14 0 0
BITMAP
14
3E
3E
36
1C
62
FF
FF
FF
FF
E3
FF
FF
7E
ENDCHAR
STARTCHAR ecaron
ENCODING 283
SWIDTH 578 0
DWIDTH 8 0
BBX 8 14 0 0
BITMAP
34
3E
2C
34
3C
42
DB
C3
DF
DF
E3
FF
FF
7E
ENDCHAR
STARTCHAR Gcircumflex
ENCODING 284
SWIDTH 578 0
DWIDTH 8 0
BBX 8 14 0 0
BITMAP
18
34
2C
2E
3C
62
DF
DF
D9
DD
E3
FF
FF
7E
ENDCHAR
STARTCHAR gcircumflex
ENCODING 285
SWIDTH 578 0
DWIDTH 8 0
BBX 8 14 0 0
BITMAP
18
34
2C
2E
3C
62
DF
DF
D9
DD
E3
FF
FF
7E
ENDCHAR
STARTCHAR Gbreve
ENCODING 286
SWIDTH 578 0
DWIDTH 8 0
BBX 8 13 0 0
BITMAP
3C
7E
6E
3E
62
DF
DF
D9
DD
E3
FF
FF
7E
ENDCHAR
STARTCHAR gbreve
ENCODING 287
SWIDTH 578 0
DWIDTH 8 0
BBX 8 13 0 0
BITMAP
3C
7E
6E
3E
62
DF
DF
D9
DD
E3
FF
FF
7E
ENDCHAR
STARTCHAR Gdotaccent
ENCODING 288
SWIDTH 578 0
DWIDTH 8 0
BBX 8 13 0 0
BITMAP
3C
7E
7E
7E
62
DF
DF
D9
DD
E3
FF
FF
7E
ENDCHAR
STARTCHAR gdotaccent
ENCODING 289
SWIDTH 578 0
DWIDTH 8 0
BBX 8 13 0 0
BITMAP
3C
7E
7E
7E
62
DF
DF
D9
DD
E3
FF
FF
7E
ENDCHAR
STARTCHAR Gcommaaccent
ENCODING 290
SWIDTH 578 0
DWIDTH 8 0
BBX 8 9 0 0
BITMAP
7E
DF
DF
D9
DD
E3
FF
F7
7E
ENDCHAR
STARTCHAR gcommaaccent
ENCODING 291
SWIDTH 578 0
DWIDTH 8 0
BBX 8 9 0 0
BITMAP
7E
DF
DF
D9
DD
E3
FF
F7
7E
ENDCHAR
STARTCHAR Hcircumflex
ENCODING 292
SWIDTH 578 0
DWIDTH 8 0
BBX 8 14 0 0
BITMAP
18
34
2C
2E
3C
5E
DD
DD
DD
DD
DD
FF
FF
7E
ENDCHAR
STARTCHAR hcircumflex
ENCODING 293
SWIDTH 578 0
DWIDTH 8 0
BBX 8 14 0 0
BITMAP
1C
34
3C
2E
3E
5E
DD
DD
DD
DD
DD
FF
FF
7E
ENDCHAR
STARTCHAR Hbar
ENCODING 294
SWIDTH 578 0
DWIDTH 8 0
BBX 8 13 0 0
BITMAP
3C
7E
66
3E
5E
DD
DD
DD
DD
DD
FF
FF
7E
ENDCHAR
STARTCHAR hbar
ENCODING 295
SWIDTH 578 0
DWIDTH 8 0
BBX 8 9 0 0
BITMAP
7E
C1
DD
DD
DD
DD
FF
FF
7E
ENDCHAR
STARTCHAR Itilde
ENCODING 296
SWIDTH 578 0
DWIDTH 8 0
BBX 8 14 0 0
BITMAP
08
3E
7E
6A
3E
42
F7
F7
F7
F7
C3
FF
FF
7E
ENDCHAR
STARTCHAR itilde
ENCODING 297
SWIDTH 578 0
DWIDTH 8 0
BBX 8 14 0 0
BITMAP
08
3E
7E
6A
3E
42
F7
F7
F7
F7
C3
FF
FF
7E
ENDCHAR
STARTCHAR Imacron
ENCODING 298
SWIDTH 578 0
DWIDTH 8 0
BBX 8 13 0 0
BITMAP
3C
7E
62
3E
42
F7
F7
F7
F7
C3
FF
FF
7E
ENDCHAR
STARTCHAR imacron
ENCODING 299
SWIDTH 578 0
DWIDTH 8 0
BBX 8 13 0 0
BITMAP
3C
7E
62
3E
42
F7
F7
F7
F7
C3
FF
FF
7E
ENDCHAR
STARTCHAR Ibreve
ENCODING 300
SWIDTH 578 0
DWIDTH 8 0
BBX 8 13 0 0
BITMAP
3E
3E
6A
3E
42
F7
F7
F7
F7
C3
FF
FF
7E
ENDCHAR
STARTCHAR ibreve
ENCODING 301
SWIDTH 578 0
DWIDTH 8 0
BBX 8 13 0 0
BITMAP
3E
7E
6A
3E
42
F7
F7
F7
F7
C3
FF
FF
7E
ENDCHAR
STARTCHAR Iogonek
ENCODING 302
SWIDTH 578 0
DWIDTH 8 0
BBX 8 9 0 0
BITMAP
7E
F7
F7
F7
F7
C3
FF
FB
7E
ENDCHAR
STARTCHAR iogonek
ENCODING 303
SWIDTH 578 0
DWIDTH 8 0
BBX 8 9 0 0
BITMAP
7E
F7
F7
F7
F7
C3
FF
FB
7E
ENDCHAR
STARTCHAR Idotaccent
ENCODING 304
SWIDTH 578 0
DWIDTH 8 0
BBX 8 13 0 0
BITMAP
3C
7E
76
3E
42
F7
F7
F7
F7
C3
FF
FF
7E
ENDCHAR
STARTCHAR dotlessi
ENCODING 305
SWIDTH 578 0
DWIDTH 8 0
BBX 8 9 0 0
BITMAP
7E
F7
F7
F7
F7
C3
FF
FF
7E
ENDCHAR
STARTCHAR IJ
ENCODING 306
SWIDTH 578 0
DWIDTH 8 0
BBX 8 9 0 0
BITMAP
FF
DD
DD
DD
DD
89
FF
FF
7E
ENDCHAR
STARTCHAR ij
ENCODING 307
SWIDTH 578 0
DWIDTH 8 0
BBX 8 9 0 0
BITMAP
FF
DD
DD
DD
DD
89
FF
FF
7E
ENDCHAR
STARTCHAR Jcircumflex
ENCODING 308
SWIDTH 578 0
DWIDTH 8 0
BBX 8 14 0 0
BITMAP
1C
14
3E
2E
3E
7E
FF
FF
FF
FF
E7
FF
FF
7E
ENDCHAR
STARTCHAR jcircumflex
ENCODING 309
SWIDTH 578 0
DWIDTH 8 0
BBX 8 14 0 0
BITMAP
1C
14
3E
2E
3E
7E
FF
FF
FF
FF
E7
FF
FF
7E
ENDCHAR
STARTCHAR Kcommaaccent
ENCODING 310
SWIDTH 578 0
DWIDTH 8 0
BBX 8 9 0 0
BITMAP
7F
EB
FF
F7
EB
ED
F7
F7
7E
ENDCHAR
STARTCHAR kcommaaccent
ENCODING 311
SWIDTH 578 0
DWIDTH 8 0
BBX 8 9 0 0
BITMAP
7F
EB
FF
F7
EB
ED
F7
F7
7E
ENDCHAR
STARTCHAR kgreenlandic
ENCODING 312
SWIDTH 578 0
DWIDTH 8 0
BBX 8 9 0 0
BITMAP
7F
EB
FF
F7
EB
ED
FF
FF
7E
ENDCHAR
STARTCHAR Lacute
ENCODING 313
SWIDTH 578 0
DWIDTH 8 0
BBX 8 14 0 0
BITMAP
18
34
3C
28
38
6E
EF
EF
EF
EF
E3
FF
FF
7E
ENDCHAR
STARTCHAR lacute
ENCODING 314
SWIDTH 578 0
DWIDTH 8 0
BBX 8 14 0 0
BITMAP
18
34
3C
28
38
6E
EF
EF
EF
EF
E3
FF
FF
7E
ENDCHAR
STARTCHAR Lcommaaccent
ENCODING 315
SWIDTH 578 0
DWIDTH 8 0
BBX 8 9 0 0
BITMAP
7E
EF
EF
EF
EF
E3
FF
F7
7E
ENDCHAR
STARTCHAR lcommaaccent
ENCODING 316
SWIDTH 578 0
DWIDTH 8 0
BBX 8 9 0 0
BITMAP
7E
EF
EF
EF
EF
E3
FF
F7
7E
ENDCHAR
STARTCHAR Lcaron
ENCODING 317
SWIDTH 578 0
DWIDTH 8 0
BBX 8 9 0 0
BITMAP
7E
EB
EF
EF
EF
E3
FF
FF
7E
ENDCHAR
STARTCHAR lcaron
ENCODING 318
SWIDTH 578 0
DWIDTH 8 0
BBX 8 9 0 0
BITMAP
7E
EB
EF
EF
EF
E3
FF
FF
7E
ENDCHAR
STARTCHAR Ldot
ENCODING 319
SWIDTH 578 0
DWIDTH 8 0
BBX 8 9 0 0
BITMAP
7E
EF
EF
EF
EF
E3
FF
FF
7E
ENDCHAR
STARTCHAR ldot
ENCODING 320
SWIDTH 578 0
DWIDTH 8 0
BBX 8 9 0 0
BITMAP
7E
EF
EF
EF
EF
E3
FF
FF
7E
ENDCHAR
STARTCHAR Lslash
ENCODING 321
SWIDTH 578 0
DWIDTH 8 0
BBX 8 9 0 0
BITMAP
7E
EF
EF
EF
EF
E3
FF
FF
7E
ENDCHAR
STARTCHAR lslash
ENCODING 322
SWIDTH 578 0
DWIDTH 8 0
BBX 8 9 0 0
BITMAP
7E
EF
EF
EF
EF
E3
FF
FF
7E
ENDCHAR
STARTCHAR Nacute
ENCODING 323
SWIDTH 578 0
DWIDTH 8 0
BBX 8 14 0 0
BITMAP
0C
16
16
3C
1C
62
DF
DF
DF
DF
DF
FF
FF
7E
ENDCHAR
STARTCHAR nacute
ENCODING 324
SWIDTH 578 0
DWIDTH 8 0
BBX 8 14 0 0
BITMAP
0C
16
16
3C
1C
62
DF
DF
DF
DF
DF
FF
FF
7E
ENDCHAR
STARTCHAR Ncommaaccent
ENCODING 325
SWIDTH 578 0
DWIDTH 8 0
BBX 8 9 0 0
BITMAP
7E
DF
DF
DF
DF
DF
F7
F7
7E
ENDCHAR
STARTCHAR ncommaaccent
ENCODING 326
SWIDTH 578 0
DWIDTH 8 0
BBX 8 9 0 0
BITMAP
7E
DF
DF
DF
DF
DF
F7
F7
7E
ENDCHAR
STARTCHAR Ncaron
ENCODING 327
SWIDTH 578 0
DWIDTH 8 0
BBX 8 14 0 0
BITMAP
34
3E
2C
34
3C
42
DF
DF
DF
DF
DF
FF
FF
7E
ENDCHAR
STARTCHAR ncaron
ENCODING 328
SWIDTH 578 0
DWIDTH 8 0
BBX 8 14 0 0
BITMAP
34
3E
2C
34
3C
42
DF
DF
DF
DF
DF
FF
FF
7E
ENDCHAR
STARTCHAR napostrophe
ENCODING 329
SWIDTH 578 0
DWIDTH 8 0
BBX 8 9 0 0
BITMAP
7E
DF
DF
DF
DF
DF
FF
FF
7E
ENDCHAR
STARTCHAR Eng
ENCODING 330
SWIDTH 578 0
DWIDTH 8 0
BBX 8 9 0 0
BITMAP
7E
DF
DF
DF
DF
DF
FF
F3
7E
ENDCHAR
STARTCHAR eng
ENCODING 331
SWIDTH 578 0
DWIDTH 8 0
BBX 8 9 0 0
BITMAP
7E
DF
DF
DF
DF
DF
FF
F3
7E
ENDCHAR
STARTCHAR Omacron
ENCODING 332
SWIDTH 578 0
DWIDTH 8 0
BBX 8 13 0 0
BITMAP
3C
7E
62
3E
62
DD
DD
DD
DD
C3
FF
FF
7E
ENDCHAR
STARTCHAR omacron
ENCODING 333
SWIDTH 578 0
DWIDTH 8 0
BBX 8 13 0 0
BITMAP
3C
7E
62
3E
62
DD
DD
DD
DD
C3
FF
FF
7E
ENDCHAR
STARTCHAR Obreve
ENCODING 334
SWIDTH 578 0
DWIDTH 8 0
BBX 8 13 0 0
BITMAP
3C
7E
6A
3E
62
DD
DD
DD
DD
C3
FF
FF
7E
ENDCHAR
STARTCHAR obreve
ENCODING 335
SWIDTH 578 0
DWIDTH 8 0
BBX 8 13 0 0
BITMAP
3C
7E
6A
3E
62
DD
DD
DD
DD
C3
FF
FF
7E
ENDCHAR
STARTCHAR Ohungarumlaut
ENCODING 336
SWIDTH 578 0
DWIDTH 8 0
BBX 8 14 0 0
BITMAP
0E
1F
17
3A
3E
62
DD
DD
DD
DD
C3
FF
FF
7E
ENDCHAR
STARTCHAR ohungarumlaut
ENCODING 337
SWIDTH 578 0
DWIDTH 8 0
BBX 8 14 0 0
BITMAP
0E
1F
17
3A
3E
62
DD
DD
DD
DD
C3
FF
FF
7E
ENDCHAR
STARTCHAR OE
ENCODING 338
SWIDTH 578 0
DWIDTH 8 0
BBX 8 9 0 0
BITMAP
7F
F7
F7
F7
F7
C1
FF
FF
7E
ENDCHAR
STARTCHAR oe
ENCODING 339
SWIDTH 578 0
DWIDTH 8 0
BBX 8 9 0 0
BITMAP
7F
F7
F7
F7
F7
C1
FF
FF
7E
ENDCHAR
STARTCHAR Racute
ENCODING 340
SWIDTH 578 0
DWIDTH 8 0
BBX 8 14 0 0
BITMAP
0C
16
16
3C
38
46
DB
DB
C7
DB
DB
FF
FF
7E
ENDCHAR
STARTCHAR racute
ENCODING 341
SWIDTH 578 0
DWIDTH 8 0
BBX 8 14 0 0
BITMAP
0C
16
16
3C
38
46
DB
DB
C7
DB
DB
FF
FF
7E
ENDCHAR
STARTCHAR Rcommaaccent
ENCODING 342
SWIDTH 578 0
DWIDTH 8 0
BBX 8 9 0 0
BITMAP
7E
DB
DB
C7
DB
DB
F7
F7
7E
ENDCHAR
STARTCHAR rcommaaccent
ENCODING 343
SWIDTH 578 0
DWIDTH 8 0
BBX 8 9 0 0
BITMAP
7E
DB
DB
C7
DB
DB
F7
F7
7E
ENDCHAR
STARTCHAR Rcaron
ENCODING 344
SWIDTH 578 0
DWIDTH 8 0
BBX 8 14 0 0
BITMAP
34
3E
2C
34
3C
42
DB
DB
C7
DB
DB
FF
FF
7E
ENDCHAR
STARTCHAR rcaron
ENCODING 345
SWIDTH 578 0
DWIDTH 8 0
BBX 8 14 0 0
BITMAP
34
3E
2C
34
3C
42
DB
DB
C7
DB
DB
FF
FF
7E
ENDCHAR
STARTCHAR Sacute
ENCODING 346
SWIDTH 578 0
DWIDTH 8 0
BBX 8 14 0 0
BITMAP
0C
1A
16
14
1C
62
DF
DF
FF
FF
E3
FF
FF
7E
ENDCHAR
STARTCHAR sacute
ENCODING 347
SWIDTH 578 0
DWIDTH 8 0
BBX 8 14 0 0
BITMAP
0C
1A
16
14
1C
62
DF
DF
FF
FF
E3
FF
FF
7E
ENDCHAR
STARTCHAR Scircumflex
ENCODING 348
SWIDTH 578 0
DWIDTH 8 0
BBX 8 14 0 0
BITMAP
1C
14
3E
2A
3E
62
DF
DF
FF
FF
E3
FF
FF
7E
ENDCHAR
STARTCHAR scircumflex
ENCODING 349
SWIDTH 578 0
DWIDTH 8 0
BBX 8 14 0 0
BITMAP
1C
14
3E
2A
3E
62
DF
DF
FF
FF
E3
FF
FF
7E
ENDCHAR
STARTCHAR Scedilla
ENCODING 350
SWIDTH 578 0
DWIDTH 8 0
BBX 8 9 0 0
BITMAP
7E
DF
DF
FF
FF
E3
F7
EF
7E
ENDCHAR
STARTCHAR scedilla
ENCODING 351
SWIDTH 578 0
DWIDTH 8 0
BBX 8 9 0 0
BITMAP
7E
DF
DF
FF
FF
E3
F7
EF
7E
ENDCHAR
STARTCHAR Scaron
ENCODING 352
SWIDTH 578 0
DWIDTH 8 0
BBX 8 14 0 0
BITMAP
14
3E
3E
3E
1C
62
DF
DF
FF
FF
E3
FF
FF
7E
ENDCHAR
STARTCHAR scaron
ENCODING 353
SWIDTH 578 0
DWIDTH 8 0
BBX 8 14 0 0
BITMAP
14
3E
3E
3E
1C
62
DF
DF
FF
FF
E3
FF
FF
7E
ENDCHAR
STARTCHAR Tcommaaccent
ENCODING 354
SWIDTH 578 0
DWIDTH 8 0
BBX 8 9 0 0
BITMAP
7E
F7
F7
F7
F7
F7
FF
F7
7E
ENDCHAR
STARTCHAR tcommaaccent
ENCODING 355
SWIDTH 578 0
DWIDTH 8 0
BBX 8 9 0 0
BITMAP
7E
F7
F7
F7
F7
F7
FF
F7
7E
ENDCHAR
STARTCHAR Tcaron
ENCODING 356
SWIDTH 578 0
DWIDTH 8 0
BBX 8 14 0 0
BITMAP
14
3E
2E
34
3C
42
F7
F7
F7
F7
F7
FF
FF
7E
ENDCHAR
STARTCHAR tcaron
ENCODING 357
SWIDTH 578 0
DWIDTH 8 0
BBX 8 9 0 0
BITMAP
7E
F7
F7
F7
F7
F7
FF
FF
7E
ENDCHAR
STARTCHAR Tbar
ENCODING 358
SWIDTH 578 0
DWIDTH 8 0
BBX 8 9 0 0
BITMAP
7E
F7
F7
F7
F7
F7
FF
FF
7E
ENDCHAR
STARTCHAR tbar
ENCODING 359
SWIDTH 578 0
DWIDTH 8 0
BBX 8 9 0 0
BITMAP
7E
F7
F7
F7
F7
F7
FF
FF
7E
ENDCHAR
STARTCHAR Utilde
ENCODING 360
SWIDTH 578 0
DWIDTH 8 0
BBX 8 14 0 0
BITMAP
08
3E
7E
6A
3E
5E
DF
DF
DF
DF
C3
FF
FF
7E
ENDCHAR
STARTCHAR utilde
ENCODING 361
SWIDTH 578 0
DWIDTH 8 0
BBX 8 14 0 0
BITMAP
08
3E
7E
6A
3E
5E
DF
DF
DF
DF
C3
FF
FF
7E
ENDCHAR
STARTCHAR Umacron
ENCODING 362
SWIDTH 578 0
DWIDTH 8 0
BBX 8 13 0 0
BITMAP
3E
7E
62
3E
5E
DF
DF
DF
DF
C3
FF
FF
7E
ENDCHAR
STARTCHAR umacron
ENCODING 363
SWIDTH 578 0
DWIDTH 8 0
BBX 8 13 0 0
BITMAP
3E
7E
62
3E
5E
DF
DF
DF
DF
C3
FF
FF
7E
ENDCHAR
STARTCHAR Ubreve
ENCODING 364
SWIDTH 578 0
DWIDTH 8 0
BBX 8 13 0 0
BITMAP
3E
7E
6A
3E
5E
DF
DF
DF
DF
C3
FF
FF
7E
ENDCHAR
STARTCHAR ubreve
ENCODING 365
SWIDTH 578 0
DWIDTH 8 0
BBX 8 13 0 0
BITMAP
3E
7E
6A
3E
5E
DF
DF
DF
DF
C3
FF
FF
7E
ENDCHAR
STARTCHAR Uring
ENCODING 366
SWIDTH 578 0
DWIDTH 8 0
BBX 8 13 0 0
BITMAP
3C
2E
2E
3E
5E
DF
DF
DF
DF
C3
FF
FF
7E
ENDCHAR
STARTCHAR uring
ENCODING 367
SWIDTH 578 0
DWIDTH 8 0
BBX 8 13 0 0
BITMAP
3C
2E
2E
3E
5E
DF
DF
DF
DF
C3
FF
FF
7E
ENDCHAR
STARTCHAR Uhungarumlaut
ENCODING 368
SWIDTH 581 0
DWIDTH 8 0
BBX 8 14 0 0
BITMAP
0E
1F
17
3A
3E
5E
DF
DF
DF
DF
C3
FF
FF
7E
ENDCHAR
STARTCHAR uhungarumlaut
ENCODING 369
SWIDTH 582 0
DWIDTH 8 0
BBX 8 14 0 0
BITMAP
0E
1F
17
3A
3E
5E
DF
DF
DF
DF
C3
FF
FF
7E
ENDCHAR
STARTCHAR Uogonek
ENCODING 370
SWIDTH 578 0
DWIDTH 8 0
BBX 8 9 0 0
BITMAP
7E
DF
DF
DF
DF
CB
F7
FF
7E
ENDCHAR
STARTCHAR uogonek
ENCODING 371
SWIDTH 578 0
DWIDTH 8 0
BBX 8 9 0 0
BITMAP
7E
DF
DF
DF
DF
CB
F7
FF
7E
ENDCHAR
STARTCHAR Wcircumflex
ENCODING 372
SWIDTH 578 0
DWIDTH 8 0
BBX 8 14 0 0
BITMAP
18
34
2C
2E
3C
77
F5
F5
ED
ED
CB
FF
FF
7E
ENDCHAR
STARTCHAR wcircumflex
ENCODING 373
SWIDTH 578 0
DWIDTH 8 0
BBX 8 14 0 0
BITMAP
18
34
2C
2E
3C
77
F5
F5
ED
ED
CB
FF
FF
7E
ENDCHAR
STARTCHAR Ycircumflex
ENCODING 374
SWIDTH 578 0
DWIDTH 8 0
BBX 8 14 0 0
BITMAP
1C
14
3E
2E
3E
5A
EB
EF
F7
F7
F7
FF
FF
7E
ENDCHAR
STARTCHAR ycircumflex
ENCODING 375
SWIDTH 578 0
DWIDTH 8 0
BBX 8 14 0 0
BITMAP
1C
14
3E
2E
3E
5A
EB
EF
F7
F7
F7
FF
FF
7E
ENDCHAR
STARTCHAR Ydieresis
ENCODING 376
SWIDTH 578 0
DWIDTH 8 0
BBX 8 13 0 0
BITMAP
3C
3E
2A
3C
5A
EB
EF
F7
F7
F7
FF
FF
7E
ENDCHAR
STARTCHAR Zacute
ENCODING 377
SWIDTH 578 0
DWIDTH 8 0
BBX 8 14 0 0
BITMAP
1C
16
34
3C
3C
62
FB
F7
FF
EF
F3
FF
FF
7E
ENDCHAR
STARTCHAR zacute
ENCODING 378
SWIDTH 578 0
DWIDTH 8 0
BBX 8 14 0 0
BITMAP
1C
16
34
3C
3C
62
FB
F7
FF
EF
F3
FF
FF
7E
ENDCHAR
STARTCHAR Zdotaccent
ENCODING 379
SWIDTH 578 0
DWIDTH 8 0
BBX 8 13 0 0
BITMAP
3C
7E
7E
7E
62
FB
F7
FF
EF
F3
FF
FF
7E
ENDCHAR
STARTCHAR zdotaccent
ENCODING 380
SWIDTH 578 0
DWIDTH 8 0
BBX 8 13 0 0
BITMAP
3C
7E
7E
7E
62
FB
F7
FF
EF
F3
FF
FF
7E
ENDCHAR
STARTCHAR Zcaron
ENCODING 381
SWIDTH 578 0
DWIDTH 8 0
BBX 8 14 0 0
BITMAP
14
3E
2E
34
3C
62
FB
F7
FF
EF
F3
FF
FF
7E
ENDCHAR
STARTCHAR zcaron
ENCODING 382
SWIDTH 578 0
DWIDTH 8 0
BBX 8 14 0 0
BITMAP
14
3E
2E
34
3C
62
FB
F7
FF
EF
F3
FF
FF
7E
ENDCHAR
STARTCHAR longs
ENCODING 383
SWIDTH 578 0
DWIDTH 8 0
BBX 8 9 0 0
BITMAP
7E
DB
DF
DF
FB
FF
FF
FF
7E
ENDCHAR
STARTCHAR florin
ENCODING 402
SWIDTH 578 0
DWIDTH 8 0
BBX 8 9 0 0
BITMAP
7E
EF
EF
EF
EF
EF
EF
FF
7E
ENDCHAR
STARTCHAR uni01CD
ENCODING 461
SWIDTH 578 0
DWIDTH 8 0
BBX 8 14 0 0
BITMAP
14
3E
2E
34
3C
62
FB
DB
C3
DF
DF
FF
FF
7E
ENDCHAR
STARTCHAR uni01CE
ENCODING 462
SWIDTH 578 0
DWIDTH 8 0
BBX 8 14 0 0
BITMAP
14
3E
3E
36
1C
62
FB
FB
C3
DB
C3
FF
FF
7E
ENDCHAR
STARTCHAR uni01CF
ENCODING 463
SWIDTH 578 0
DWIDTH 8 0
BBX 8 14 0 0
BITMAP
14
3E
3E
3E
3C
42
F7
F7
F7
F7
C3
FF
FF
7E
ENDCHAR
STARTCHAR uni01D0
ENCODING 464
SWIDTH 578 0
DWIDTH 8 0
BBX 8 14 0 0
BITMAP
14
3E
3E
36
3C
42
F7
F7
F7
F7
C3
FF
FF
7E
ENDCHAR
STARTCHAR uni01D1
ENCODING 465
SWIDTH 578 0
DWIDTH 8 0
BBX 8 14 0 0
BITMAP
14
3E
3E
36
1C
62
DD
DD
DD
DD
C3
FF
FF
7E
ENDCHAR
STARTCHAR uni01D3
ENCODING 467
SWIDTH 578 0
DWIDTH 8 0
BBX 8 14 0 0
BITMAP
14
3E
3E
36
3C
5E
DF
DF
DF
DF
C3
FF
FF
7E
ENDCHAR
STARTCHAR uni01D4
ENCODING 468
SWIDTH 578 0
DWIDTH 8 0
BBX 8 14 0 0
BITMAP
14
3E
3E
36
3C
5E
DF
DF
DF
DF
C3
FF
FF
7E
ENDCHAR
STARTCHAR uni0200
ENCODING 512
SWIDTH 578 0
DWIDTH 8 0
BBX 8 14 0 0
BITMAP
78
78
54
7E
3C
62
FB
DB
C3
DF
DF
FF
FF
7E
ENDCHAR
STARTCHAR uni0201
ENCODING 513
SWIDTH 578 0
DWIDTH 8 0
BBX 8 14 0 0
BITMAP
78
78
54
7E
3C
42
FB
FB
C3
DB
C3
FF
FF
7E
ENDCHAR
STARTCHAR uni0202
ENCODING 514
SWIDTH 578 0
DWIDTH 8 0
BBX 8 13 0 0
BITMAP
3C
7E
66
3E
62
FB
DB
C3
DF
DF
FF
FF
7E
ENDCHAR
STARTCHAR uni0203
ENCODING 515
SWIDTH 578 0
DWIDTH 8 0
BBX 8 13 0 0
BITMAP
3C
7E
66
3E
42
FB
FB
C3
DB
C3
FF
FF
7E
ENDCHAR
STARTCHAR uni0204
ENCODING 516
SWIDTH 578 0
DWIDTH 8 0
BBX 8 14 0 0
BITMAP
78
78
54
7E
3C
62
FF
FF
FF
FF
E3
FF
FF
7E
ENDCHAR
STARTCHAR uni0205
ENCODING 517
SWIDTH 578 0
DWIDTH 8 0
BBX 8 14 0 0
BITMAP
78
78
54
7E
3C
42
DB
C3
DF
DF
E3
FF
FF
7E
ENDCHAR
STARTCHAR uni0206
ENCODING 518
SWIDTH 578 0
DWIDTH 8 0
BBX 8 13 0 0
BITMAP
3C
7E
66
3E
62
FF
FF
FF
FF
E3
FF
FF
7E
ENDCHAR
STARTCHAR uni0207
ENCODING 519
SWIDTH 578 0
DWIDTH 8 0
BBX 8 13 0 0
BITMAP
3C
7E
66
3E
42
DB
C3
DF
DF
E3
FF
FF
7E
ENDCHAR
STARTCHAR uni0208
ENCODING 520
SWIDTH 578 0
DWIDTH 8 0
BBX 8 14 0 0
BITMAP
78
78
54
7E
3C
42
F7
F7
F7
F7
C3
FF
FF
7E
ENDCHAR
STARTCHAR uni0209
ENCODING 521
SWIDTH 578 0
DWIDTH 8 0
BBX 8 14 0 0
BITMAP
78
78
54
7E
3C
42
F7
F7
F7
F7
C3
FF
FF
7E
ENDCHAR
STARTCHAR uni020A
ENCODING 522
SWIDTH 578 0
DWIDTH 8 0
BBX 8 13 0 0
BITMAP
3C
7E
66
3E
42
F7
F7
F7
F7
C3
FF
FF
7E
ENDCHAR
STARTCHAR uni020B
ENCODING 523
SWIDTH 578 0
DWIDTH 8 0
BBX 8 13 0 0
BITMAP
3C
7E
66
3E
42
F7
F7
F7
F7
C3
FF
FF
7E
ENDCHAR
STARTCHAR uni020C
ENCODING 524
SWIDTH 578 0
DWIDTH 8 0
BBX 8 14 0 0
BITMAP
78
78
54
7E
3C
62
DD
DD
DD
DD
C3
FF
FF
7E
ENDCHAR
STARTCHAR uni020D
ENCODING 525
SWIDTH 578 0
DWIDTH 8 0
BBX 8 14 0 0
BITMAP
78
78
54
7E
3C
62
DD
DD
DD
DD
C3
FF
FF
7E
ENDCHAR
STARTCHAR uni020E
ENCODING 526
SWIDTH 578 0
DWIDTH 8 0
BBX 8 13 0 0
BITMAP
3C
7E
66
3E
62
DD
DD
DD
DD
C3
FF
FF
7E
ENDCHAR
STARTCHAR uni020F
ENCODING 527
SWIDTH 578 0
DWIDTH 8 0
BBX 8 13 0 0
BITMAP
3C
7E
66
3E
62
DD
DD
DD
DD
C3
FF
FF
7E
ENDCHAR
STARTCHAR uni0210
ENCODING 528
SWIDTH 578 0
DWIDTH 8 0
BBX 8 14 0 0
BITMAP
78
78
54
7E
3C
42
DB
DB
C7
DB
DB
FF
FF
7E
ENDCHAR
STARTCHAR uni0211
ENCODING 529
SWIDTH 578 0
DWIDTH 8 0
BBX 8 14 0 0
BITMAP
78
78
54
7E
3C
42
DB
DB
C7
DB
DB
FF
FF
7E
ENDCHAR
STARTCHAR uni0212
ENCODING 530
SWIDTH 578 0
DWIDTH 8 0
BBX 8 13 0 0
BITMAP
3C
7E
66
3E
42
DB
DB
C7
DB
DB
FF
FF
7E
ENDCHAR
STARTCHAR uni0213
ENCODING 531
SWIDTH 578 0
DWIDTH 8 0
BBX 8 13 0 0
BITMAP
3C
7E
66
3E
42
DB
DB
C7
DB
DB
FF
FF
7E
ENDCHAR
STARTCHAR uni0214
ENCODING 532
SWIDTH 578 0
DWIDTH 8 0
BBX 8 14 0 0
BITMAP
78
78
54
7E
3C
5E
DF
DF
DF
DF
C3
FF
FF
7E
ENDCHAR
STARTCHAR uni0215
ENCODING 533
SWIDTH 578 0
DWIDTH 8 0
BBX 8 14 0 0
BITMAP
78
78
54
7E
3C
5E
DF
DF
DF
DF
C3
FF
FF
7E
ENDCHAR
STARTCHAR uni0216
ENCODING 534
SWIDTH 578 0
DWIDTH 8 0
BBX 8 13 0 0
BITMAP
3C
7E
66
3E
5E
DF
DF
DF
DF
C3
FF
FF
7E
ENDCHAR
STARTCHAR uni0217
ENCODING 535
SWIDTH 578 0
DWIDTH 8 0
BBX 8 13 0 0
BITMAP
3C
7E
66
3E
5E
DF
DF
DF
DF
C3
FF
FF
7E
ENDCHAR
STARTCHAR uni0218
ENCODING 536
SWIDTH 578 0
DWIDTH 8 0
BBX 8 9 0 0
BITMAP
7E
DF
DF
FF
FF
E3
FF
F7
7E
ENDCHAR
STARTCHAR uni0219
ENCODING 537
SWIDTH 578 0
DWIDTH 8 0
BBX 8 9 0 0
BITMAP
7E
DF
DF
FF
FF
E3
FF
F7
7E
ENDCHAR
STARTCHAR uni021A
ENCODING 538
SWIDTH 578 0
DWIDTH 8 0
BBX 8 9 0 0
BITMAP
7E
F7
F7
F7
F7
F7
FF
F7
7E
ENDCHAR
STARTCHAR uni021B
ENCODING 539
SWIDTH 578 0
DWIDTH 8 0
BBX 8 9 0 0
BITMAP
7E
F7
F7
F7
F7
F7
FF
F7
7E
ENDCHAR
STARTCHAR circumflex
ENCODING 710
SWIDTH 355 0
DWIDTH 5 0
BBX 5 5 0 0
BITMAP
70
50
F8
A8
F8
ENDCHAR
STARTCHAR caron
ENCODING 711
SWIDTH 355 0
DWIDTH 5 0
BBX 5 5 0 0
BITMAP
50
F8
F8
F8
70
ENDCHAR
STARTCHAR breve
ENCODING 728
SWIDTH 428 0
DWIDTH 6 0
BBX 6 4 0 0
BITMAP
78
FC
EC
78
ENDCHAR
STARTCHAR dotaccent
ENCODING 729
SWIDTH 428 0
DWIDTH 6 0
BBX 6 4 0 0
BITMAP
78
FC
FC
FC
ENDCHAR
STARTCHAR ring
ENCODING 730
SWIDTH 368 0
DWIDTH 5 0
BBX 5 4 0 0
BITMAP
78
A8
A8
F8
ENDCHAR
STARTCHAR ogonek
ENCODING 731
SWIDTH 101 0
DWIDTH 1 0
BBX 1 2 0 -2
BITMAP
80
80
ENDCHAR
STARTCHAR tilde
ENCODING 732
SWIDTH 428 0
DWIDTH 6 0
BBX 6 5 0 0
BITMAP
20
78
FC
9C
FC
ENDCHAR
STARTCHAR hungarumlaut
ENCODING 733
SWIDTH 419 0
DWIDTH 6 0
BBX 6 5 0 0
BITMAP
38
7C
DC
B8
F0
ENDCHAR
STARTCHAR uni030F
ENCODING 783
SWIDTH 419 0
DWIDTH 6 0
BBX 6 5 0 0
BITMAP
70
F8
E8
5C
3C
ENDCHAR
STARTCHAR mu
ENCODING 956
SWIDTH 578 0
DWIDTH 8 0
BBX 8 9 0 0
BITMAP
7E
DF
DF
DF
DF
C3
FF
FF
7E
ENDCHAR
STARTCHAR pi
ENCODING 960
SWIDTH 578 0
DWIDTH 8 0
BBX 8 9 0 0
BITMAP
7E
F5
BF
E3
BB
FD
E7
FF
7E
ENDCHAR
STARTCHAR uni1E60
ENCODING 7776
SWIDTH 578 0
DWIDTH 8 0
BBX 8 13 0 0
BITMAP
3E
3E
76
3E
62
DF
DF
FF
FF
E3
FF
FF
7E
ENDCHAR
STARTCHAR uni1E8E
ENCODING 7822
SWIDTH 578 0
DWIDTH 8 0
BBX 8 13 0 0
BITMAP
3C
7E
76
3E
5A
EB
EF
F7
F7
F7
FF
FF
7E
ENDCHAR
STARTCHAR uni1E8F
ENCODING 7823
SWIDTH 578 0
DWIDTH 8 0
BBX 8 13 0 0
BITMAP
3C
7E
76
3E
5A
EB
EF
F7
F7
F7
FF
FF
7E
ENDCHAR
STARTCHAR uni1EBC
ENCODING 7868
SWIDTH 578 0
DWIDTH 8 0
BBX 8 14 0 0
BITMAP
08
3E
7E
6A
3E
62
FF
FF
FF
FF
E3
FF
FF
7E
ENDCHAR
STARTCHAR uni1EF8
ENCODING 7928
SWIDTH 578 0
DWIDTH 8 0
BBX 8 14 0 0
BITMAP
08
3E
7E
6A
3E
5A
EB
EF
F7
F7
F7
FF
FF
7E
ENDCHAR
STARTCHAR uni1EF9
ENCODING 7929
SWIDTH 578 0
DWIDTH 8 0
BBX 8 14 0 0
BITMAP
08
3E
7E
6A
3E
5A
EB
EF
F7
F7
F7
FF
FF
7E
ENDCHAR
STARTCHAR endash
ENCODING 8211
SWIDTH 428 0
DWIDTH 6 0
BBX 6 9 0 0
BITMAP
78
FC
CC
FC
FC
FC
FC
FC
78
ENDCHAR
STARTCHAR emdash
ENCODING 8212
SWIDTH 428 0
DWIDTH 6 0
BBX 6 9 0 0
BITMAP
78
FC
00
FC
FC
FC
FC
FC
78
ENDCHAR
STARTCHAR quoteleft
ENCODING 8216
SWIDTH 428 0
DWIDTH 6 0
BBX 6 9 0 0
BITMAP
78
EC
FC
FC
FC
FC
FC
FC
78
ENDCHAR
STARTCHAR quoteright
ENCODING 8217
SWIDTH 428 0
DWIDTH 6 0
BBX 6 9 0 0
BITMAP
78
FC
FC
FC
FC
FC
FC
FC
78
ENDCHAR
STARTCHAR quotesinglbase
ENCODING 8218
SWIDTH 428 0
DWIDTH 6 0
BBX 6 9 0 0
BITMAP
78
FC
FC
FC
FC
EC
FC
FC
78
ENDCHAR
STARTCHAR quotedblleft
ENCODING 8220
SWIDTH 428 0
DWIDTH 6 0
BBX 6 9 0 0
BITMAP
78
FC
FC
FC
FC
FC
FC
FC
78
ENDCHAR
STARTCHAR quotedblright
ENCODING 8221
SWIDTH 428 0
DWIDTH 6 0
BBX 6 9 0 0
BITMAP
78
DC
FC
FC
FC
FC
FC
FC
78
ENDCHAR
STARTCHAR quotedblbase
ENCODING 8222
SWIDTH 428 0
DWIDTH 6 0
BBX 6 9 0 0
BITMAP
78
FC
FC
FC
FC
DC
DC
FC
78
ENDCHAR
STARTCHAR dagger
ENCODING 8224
SWIDTH 578 0
DWIDTH 8 0
BBX 8 9 0 0
BITMAP
7E
E3
F7
F7
F7
F7
FF
FF
7E
ENDCHAR
STARTCHAR daggerdbl
ENCODING 8225
SWIDTH 578 0
DWIDTH 8 0
BBX 8 9 0 0
BITMAP
7E
E3
F7
F7
E3
F7
FF
FF
7E
ENDCHAR
STARTCHAR bullet
ENCODING 8226
SWIDTH 578 0
DWIDTH 8 0
BBX 8 9 0 0
BITMAP
7E
C3
C3
C3
C3
E3
FF
FF
7E
ENDCHAR
STARTCHAR ellipsis
ENCODING 8230
SWIDTH 578 0
DWIDTH 8 0
BBX 8 9 0 0
BITMAP
7E
FF
FF
FF
FF
DB
FF
FF
7E
ENDCHAR
STARTCHAR perthousand
ENCODING 8240
SWIDTH 640 0
DWIDTH 9 0
BBX 9 9 0 0
BITMAP
7F00
DF80
AF80
F280
DB80
D280
FF80
FF80
7F00
ENDCHAR
STARTCHAR guilsinglleft
ENCODING 8249
SWIDTH 578 0
DWIDTH 8 0
BBX 8 9 0 0
BITMAP
7E
FF
F7
EF
FF
F7
FF
FF
7E
ENDCHAR
STARTCHAR guilsinglright
ENCODING 8250
SWIDTH 578 0
DWIDTH 8 0
BBX 8 9 0 0
BITMAP
7E
EF
F7
FF
F7
EF
FF
FF
7E
ENDCHAR
STARTCHAR fraction
ENCODING 8260
SWIDTH 428 0
DWIDTH 6 0
BBX 6 9 0 0
BITMAP
78
EC
FC
FC
DC
DC
FC
FC
78
ENDCHAR
STARTCHAR Euro
ENCODING 8364
SWIDTH 578 0
DWIDTH 8 0
BBX 8 9 0 0
BITMAP
7E
DF
87
DF
DF
C3
FF
FF
7E
ENDCHAR
STARTCHAR trademark
ENCODING 8482
SWIDTH 578 0
DWIDTH 8 0
BBX 8 9 0 0
BITMAP
7E
FF
FF
D7
DB
FF
FF
FF
7E
ENDCHAR
STARTCHAR product
ENCODING 8719
SWIDTH 578 0
DWIDTH 8 0
BBX 8 9 0 0
BITMAP
7E
FD
AB
EB
AF
FD
E7
FF
7E
ENDCHAR
STARTCHAR minus
ENCODING 8722
SWIDTH 428 0
DWIDTH 6 0
BBX 6 9 0 0
BITMAP
78
FC
CC
FC
FC
FC
FC
FC
78
ENDCHAR
STARTCHAR notequal
ENCODING 8800
SWIDTH 578 0
DWIDTH 8 0
BBX 8 9 0 0
BITMAP
7E
F7
FF
C3
FF
FF
FF
FF
7E
ENDCHAR
STARTCHAR uni2706
ENCODING 9990
SWIDTH 578 0
DWIDTH 8 0
BBX 8 9 0 0
BITMAP
7E
F7
EB
DF
EF
EB
FF
FF
7E
ENDCHAR
STARTCHAR uni2708
ENCODING 9992
SWIDTH 578 0
DWIDTH 8 0
BBX 8 9 0 0
BITMAP
FF
89
AF
99
89
89
81
99
7E
ENDCHAR
STARTCHAR uniF6D6
ENCODING 63190
SWIDTH 419 0
DWIDTH 6 0
BBX 6 5 0 0
BITMAP
70
F8
E8
5C
3C
ENDCHAR
STARTCHAR uFFFF2
ENCODING 1048562
SWIDTH 578 0
DWIDTH 8 0
BBX 8 9 0 0
BITMAP
FF
89
89
B5
8B
99
81
99
7E
ENDCHAR
STARTCHAR uFFFF3
ENCODING 1048563
SWIDTH 578 0
DWIDTH 8 0
BBX 8 9 0 0
BITMAP
FF
89
9D
89
9D
89
89
81
7E
ENDCHAR
STARTCHAR uFFFF4
ENCODING 1048564
SWIDTH 578 0
DWIDTH 8 0
BBX 8 9 0 0
BITMAP
7E
FF
DF
DF
DF
E7
FF
FF
7E
ENDCHAR
STARTCHAR uFFFF5
ENCODING 1048565
SWIDTH 578 0
DWIDTH 8 0
BBX 8 9 0 0
BITMAP
7E
FF
DB
E7
FF
FF
FF
E7
7E
ENDCHAR
STARTCHAR uFFFF6
ENCODING 1048566
SWIDTH 578 0
DWIDTH 8 0
BBX 8 9 0 0
BITMAP
7E
FF
F7
EB
FF
E7
FF
E7
7E
ENDCHAR
STARTCHAR uFFFF8
ENCODING 1048568
SWIDTH 578 0
DWIDTH 8 0
BBX 8 9 0 0
BITMAP
7E
EF
FB
D7
C3
C3
FF
E7
7E
ENDCHAR
STARTCHAR uFFFF9
ENCODING 1048569
SWIDTH 578 0
DWIDTH 8 0
BBX 8 9 0 0
BITMAP
FF
89
AD
AB
A5
99
81
81
7E
ENDCHAR
STARTCHAR uFFFFB
ENCODING 1048571
SWIDTH 578 0
DWIDTH 8 0
BBX 8 9 0 0
BITMAP
7E
FF
EF
F7
DB
F7
FF
FF
7E
ENDCHAR
STARTCHAR uFFFFC
ENCODING 1048572
SWIDTH 578 0
DWIDTH 8 0
BBX 8 9 0 0
BITMAP
7E
FD
DF
EB
F7
FF
FF
FF
7E
ENDCHAR
STARTCHAR uFFFFD
ENCODING 1048573
SWIDTH 578 0
DWIDTH 8 0
BBX 8 9 0 0
BITMAP
7E
C3
C3
D7
F3
FF
FF
E7
7E
ENDCHAR
STARTCHAR uFFFFE
ENCODING 1048574
SWIDTH 578 0
DWIDTH 8 0
BBX 8 9 0 0
BITMAP
7E
AD
ED
AD
89
FF
FF
FF
7E
ENDCHAR
STARTCHAR uFFFFF
ENCODING 1048575
SWIDTH 578 0
DWIDTH 8 0
BBX 8 9 0 0
BITMAP
FF
BD
BD
AD
9D
99
81
99
7E
ENDCHAR
STARTCHAR .notdef
ENCODING -1
SWIDTH 1000 0
DWIDTH 14 0
BBX 1 1 0 0
BITMAP
00
ENDCHAR
STARTCHAR glyph1
ENCODING -1
SWIDTH 0 0
DWIDTH 0 0
BBX 1 1 0 0
BITMAP
00
ENDCHAR
ENDFONT
